HIERARCHY
ROOT Hips
{
	OFFSET 0.000000 0.000000 0.000000 
	CHANNELS 6 Xposition Yposition Zposition Zrotation Yrotation Xrotation
	JOINT LeftUpLeg
	{
		OFFSET 1.363060 -1.794630 0.839290 
		CHANNELS 3 Zrotation Yrotation Xrotation
		JOINT LeftLeg
		{
			OFFSET 2.448110 -6.726130 0.000000 
			CHANNELS 3 Zrotation Yrotation Xrotation
			JOINT LeftFoot
			{
				OFFSET 2.562200 -7.039590 0.000000 
				CHANNELS 3 Zrotation Yrotation Xrotation
				JOINT LeftToeBase
				{
					OFFSET 0.157640 -0.433110 2.322550 
					CHANNELS 3 Zrotation Yrotation Xrotation
					End Site
					{
						OFFSET 0.000000 0.000000 0.000000 
					}
				}
			}
		}
	}
	JOINT RightUpLeg
	{
		OFFSET -1.305520 -1.794630 0.839290 
		CHANNELS 3 Zrotation Yrotation Xrotation
		JOINT RightLeg
		{
			OFFSET -2.542530 -6.985550 0.000000 
			CHANNELS 3 Zrotation Yrotation Xrotation
			JOINT RightFoot
			{
				OFFSET -2.568260 -7.056230 0.000000 
				CHANNELS 3 Zrotation Yrotation Xrotation
				JOINT RightToeBase
				{
					OFFSET -0.164730 -0.452590 2.363150 
					CHANNELS 3 Zrotation Yrotation Xrotation
					End Site
					{
						OFFSET 0.000000 0.000000 0.000000 
					}
				}
			}
		}
	}
	JOINT Spine
	{
		OFFSET 0.028270 2.035590 -0.193380 
		CHANNELS 3 Zrotation Yrotation Xrotation
		JOINT Spine1
		{
			OFFSET 0.056720 2.048850 -0.042750 
			CHANNELS 3 Zrotation Yrotation Xrotation
			JOINT Neck1
			{
				OFFSET -0.054170 1.746240 0.172020 
				CHANNELS 3 Zrotation Yrotation Xrotation
				JOINT Head
				{
					OFFSET 0.104070 1.761360 -0.123970 
					CHANNELS 3 Zrotation Yrotation Xrotation
					End Site
					{
						OFFSET 0.000000 0.000000 0.000000 
					}
				}
			}
			JOINT LeftArm
			{
				OFFSET 3.362410 1.200890 -0.311210 
				CHANNELS 3 Zrotation Yrotation Xrotation
				JOINT LeftForeArm
				{
					OFFSET 4.983000 -0.000000 -0.000000 
					CHANNELS 3 Zrotation Yrotation Xrotation
					JOINT LeftHand
					{
						OFFSET 3.483560 -0.000000 -0.000000 
						CHANNELS 3 Zrotation Yrotation Xrotation
						JOINT LeftHandIndex1
						{
							OFFSET 0.715260 -0.000000 -0.000000 
							CHANNELS 3 Zrotation Yrotation Xrotation
							End Site
							{
								OFFSET 0.000000 0.000000 0.000000 
							}
						}
					}
				}
			}
			JOINT RightArm
			{
				OFFSET -3.136600 1.374050 -0.404650 
				CHANNELS 3 Zrotation Yrotation Xrotation
				JOINT RightForeArm
				{
					OFFSET -5.241900 -0.000000 -0.000000 
					CHANNELS 3 Zrotation Yrotation Xrotation
					JOINT RightHand
					{
						OFFSET -3.444170 -0.000000 -0.000000 
						CHANNELS 3 Zrotation Yrotation Xrotation
						JOINT RightHandIndex1
						{
							OFFSET -0.622530 -0.000000 -0.000000 
							CHANNELS 3 Zrotation Yrotation Xrotation
							End Site
							{
								OFFSET 0.000000 0.000000 0.000000 
							}
						}
					}
				}
			}
		}
	}
}
MOTION
Frames: 7
Frame Time: 0.041667
3.682885 18.015379 0.442039 -178.097511 -61.304023 159.925336 -28.718581 1.316954 -23.618295 11.442829 23.169894 82.170423 -0.628232 -12.141354 0.311912 12.148400 -18.452700 -66.458600 33.274811 -17.381859 -19.039451 -8.218436 -20.039563 71.740313 -1.783585 17.262058 -15.992369 -0.326000 3.669900 -10.149700 2.746199 3.382907 -2.361860 4.273935 1.598906 -14.829282 -0.732583 4.206238 18.463862 -3.639100 1.399800 15.640600 -84.027035 10.148926 37.959840 36.122620 -46.341376 -15.040835 -0.909892 1.821391 -6.272953 -7.125000 0.000000 0.000000 67.803813 -27.423276 70.889746 -22.900026 33.889964 -5.127480 0.442689 -1.860849 -26.057180 7.125000 0.000000 0.000000 
3.699818 18.016589 0.464360 -178.150605 -60.896335 159.705447 -28.329897 1.669259 -24.322697 11.306189 23.232193 81.566768 -1.115953 -9.456401 4.706015 12.111400 -18.437300 -66.341400 33.559914 -16.492111 -19.273484 -8.373572 -20.275609 72.384549 -1.973787 17.437899 -17.035141 -0.332200 3.704000 -10.245200 2.675622 3.403791 -2.281874 4.046983 1.584706 -14.671102 -0.550088 4.326836 18.419320 -3.585800 1.542600 15.528600 -83.085335 8.934063 39.390667 36.784008 -46.621476 -15.307834 -0.952839 1.807117 -5.104683 -7.125000 0.000000 0.000000 65.614473 -25.442140 70.723605 -23.077478 34.028025 -5.257835 0.486717 -1.826219 -25.284138 7.125000 0.000000 0.000000 
3.716093 18.010761 0.489871 -178.626125 -60.638153 159.861712 -28.302786 2.002345 -25.007965 11.191042 23.328110 80.947752 -1.468427 -6.901780 8.792576 12.204000 -18.475600 -66.634000 33.421844 -15.881642 -19.710938 -8.633438 -20.461120 73.116354 -2.207943 17.368483 -18.101321 -0.298200 3.511100 -9.705000 2.607912 3.308853 -2.208041 3.827924 1.529859 -14.475748 -0.950663 4.204142 18.723078 -4.080500 1.583900 15.929200 -81.977413 7.919997 40.616747 38.097999 -47.312616 -16.060133 -0.977130 1.770151 -3.807161 -7.125000 0.000000 0.000000 63.517793 -23.225240 70.474396 -23.231718 34.148445 -5.424315 0.481349 -1.820603 -24.470921 7.125000 0.000000 0.000000 
3.732147 17.993497 0.510983 -179.105159 -60.506048 159.988110 -28.367161 2.287502 -25.641151 11.114571 23.411083 80.540904 -1.603432 -6.301426 11.198270 12.715300 -18.676900 -68.238900 33.131860 -15.688271 -20.188257 -8.943131 -20.577626 73.832219 -2.445815 17.363244 -19.145989 -0.278400 3.393700 -9.377000 2.490471 3.190829 -2.182865 3.526177 1.464557 -14.495742 -0.787264 4.158970 18.647025 -4.035400 1.642100 15.762900 -80.624147 7.140791 41.989990 39.723832 -48.141729 -17.046998 -0.997864 1.714693 -2.824231 -7.125000 0.000000 0.000000 61.686808 -21.115204 70.058270 -23.346825 34.221832 -5.524723 0.469102 -1.793410 -23.400327 7.125000 0.000000 0.000000 
3.753369 17.969086 0.528797 -178.898955 -60.313243 159.578656 -28.125933 2.640556 -26.513892 11.301877 23.525540 80.510378 -1.758676 -4.394916 14.856700 12.714000 -18.676400 -68.234800 33.343315 -15.480204 -20.723132 -9.204857 -20.754773 74.545046 -2.619840 17.689859 -20.027077 -0.308200 3.569000 -9.867200 2.359829 3.185478 -2.228254 2.976373 1.412621 -14.715990 -0.499860 3.896880 18.866342 -3.870700 1.571100 15.852500 -79.022666 6.337972 43.658097 41.237649 -48.820698 -17.958314 -1.014433 1.658762 -2.169219 -7.125000 0.000000 0.000000 60.185615 -19.049235 69.716883 -23.281277 34.097488 -5.505861 0.455239 -1.756468 -22.410584 7.125000 0.000000 0.000000 
3.773272 17.937638 0.546500 -178.868520 -60.148514 159.427263 -28.128074 3.041060 -27.612764 11.642221 23.695882 81.149103 -1.805306 -3.768573 16.116494 12.449000 -18.574100 -67.405200 33.485474 -15.248791 -21.393861 -9.464954 -20.935975 75.204314 -2.792229 18.158436 -20.824888 -0.292200 3.476000 -9.607000 2.251247 3.214730 -2.276871 2.484772 1.391015 -14.903945 -0.478676 3.818133 19.063766 -3.936100 1.597000 16.065900 -77.361664 5.266527 45.343783 42.502613 -49.319570 -18.709150 -1.015647 1.622968 -1.684185 -7.125000 0.000000 0.000000 58.764868 -16.923176 69.570029 -23.117578 33.859196 -5.460738 0.429325 -1.734953 -21.667389 7.125000 0.000000 0.000000 
3.787456 17.897722 0.564314 -178.945814 -60.078698 159.367297 -28.374276 3.367861 -28.732591 12.166495 23.903235 82.419403 -1.850952 -3.140992 16.347925 12.455800 -18.576800 -67.426400 33.429646 -15.263617 -22.033902 -9.705957 -21.046960 75.709576 -2.960753 18.487772 -21.534523 -0.234100 3.114100 -8.596700 2.107462 3.262016 -2.338390 1.937729 1.373573 -15.111891 -0.268751 3.447134 19.180602 -3.814300 1.467900 16.094200 -75.644370 3.897204 47.068764 43.354370 -49.570304 -19.196583 -1.007264 1.592324 -1.350377 -7.125000 0.000000 0.000000 57.526238 -15.097467 69.191124 -23.024145 33.720317 -5.453502 0.393181 -1.722084 -20.378252 7.125000 0.000000 0.000000 
